<?xml version="1.0" encoding="utf-8"?>
<!-- Generator: Adobe Illustrator 24.1.2, SVG Export Plug-In . SVG Version: 6.00 Build 0)  -->
<svg version="1.1" id="Layer_1" xmlns="http://www.w3.org/2000/svg" xmlns:xlink="http://www.w3.org/1999/xlink" x="0px" y="0px"
	 viewBox="0 0 512 512" style="enable-background:new 0 0 512 512;" xml:space="preserve">
<style type="text/css">
	.st0{fill:#EBEEFA;}
</style>
<g>
	<path class="st0" d="M83.6,86.6L176,162c3.3,2.7,8.1,2.2,10.8-1.1s2.2-8.1-1.1-10.8L93.3,74.7C86.1,68.8,81.9,60,81.9,50.8l0,0
		c0-4.7,1-8.9,2.6-12.6C87,32.6,91.1,28,96.1,24.8s10.9-5,16.9-5c3.3,0,6.6,0.5,9.9,1.7c3.2,1.1,6.4,2.9,9.4,5.3l104,84.8
		c3.3,2.7,8.1,2.2,10.8-1.1c2.7-3.3,2.2-8.1-1.1-10.8L142,15c-4.4-3.6-9.1-6.2-14.1-7.9c-4.9-1.7-10-2.5-15-2.5
		c-12,0-23.5,4.7-32.1,12.8c-4.3,4.1-7.9,9-10.4,14.7c-2.5,5.6-3.9,12-3.9,18.7l0,0v0.1l0,0l0,0l0,0C66.6,64.7,72.8,77.8,83.6,86.6z
		"/>
	<path class="st0" d="M437.5,256l-100.3-81.8c-3.3-2.7-8.1-2.2-10.8,1.1c-2.7,3.3-2.2,8.1,1.1,10.8l85.8,70l-88.8,72.5l-88.3,72
		l-103.7,84.6c-3,2.5-6.2,4.2-9.4,5.3c-3.2,1.1-6.6,1.7-9.9,1.7c-7.9,0-15.8-3.2-21.6-8.6c-2.9-2.7-5.2-6-6.9-9.7
		c-1.6-3.7-2.6-7.9-2.6-12.6c0-9.3,4.2-18,11.3-23.9l93.5-76.4l87.2-71.2l41.3-33.7l-40.3-32.8c-3.3-2.7-8.1-2.2-10.8,1.1
		c-2.7,3.3-2.2,8.1,1.1,10.8l25.7,20.9l-26.7,21.8l-87.2,71.2l-93.5,76.4c-10.7,8.8-17,21.9-17,35.8c0,6.8,1.4,13.2,3.9,18.8
		c3.8,8.5,9.9,15.4,17.4,20.1c7.4,4.7,16.1,7.4,25.1,7.4c5,0,10-0.8,15-2.5c4.9-1.7,9.7-4.4,14.1-7.9l103.7-84.6l88.3-72L437.5,256z
		"/>
	<path class="st0" d="M441.5,31.9c-3.8-8.5-9.9-15.4-17.4-20.1C416.7,7.1,408,4.5,399,4.5c-5,0-10.1,0.8-15,2.5s-9.7,4.4-14.1,7.9
		L269.1,97.3L178,171.6L74.5,256l100.6,82.1c3.3,2.7,8.1,2.2,10.8-1.1c2.7-3.3,2.2-8.1-1.1-10.8l-86-70.2l88.9-72.5l91.1-74.3
		l100.9-82.3c3-2.5,6.2-4.2,9.4-5.3c3.2-1.1,6.6-1.7,9.9-1.7c7.9,0,15.8,3.2,21.6,8.6c2.9,2.7,5.2,6,6.9,9.7
		c1.6,3.7,2.6,7.9,2.6,12.6l0,0c0,9.3-4.2,18.1-11.4,23.9L326.4,150L238,222.1L196.4,256l40.9,33.4c3.3,2.7,8.1,2.2,10.8-1.1
		c2.7-3.3,2.2-8.1-1.1-10.8L220.7,256l27-22l88.4-72.1l92.3-75.3c10.8-8.8,17-21.9,17-35.8l0,0l0,0l0,0l0,0
		C445.4,44,444,37.6,441.5,31.9z"/>
	<path class="st0" d="M428.2,425.5l-92-75.1c-3.3-2.7-8.1-2.2-10.8,1.1c-2.7,3.3-2.2,8.1,1.1,10.8l92,75.1
		c7.2,5.9,11.3,14.6,11.3,23.9c0,4.7-1,8.9-2.6,12.6c-2.5,5.6-6.6,10.2-11.6,13.4c-5,3.2-10.9,5-16.9,5c-3.3,0-6.6-0.5-9.9-1.7
		c-3.2-1.1-6.4-2.9-9.4-5.3l-104.1-85c-3.3-2.7-8.1-2.2-10.8,1.1c-2.7,3.3-2.2,8.1,1.1,10.8l104.1,85c4.4,3.6,9.1,6.2,14.1,7.9
		c4.9,1.7,10,2.5,15,2.5c12,0,23.5-4.7,32.1-12.8c4.3-4.1,7.9-9,10.4-14.7s3.9-12,3.9-18.8C445.2,447.4,438.9,434.2,428.2,425.5z"/>
</g>
</svg>
